<mxfile host="app.diagrams.net" modified="2023-11-27T08:17:31.007Z" agent="Mozilla/5.0 (Windows NT 10.0; Win64; x64) AppleWebKit/537.36 (KHTML, like Gecko) Chrome/119.0.0.0 Safari/537.36" etag="SnNmGTs8URPTTwwIUmoQ" version="22.1.4" type="github">
  <diagram name="Page-1" id="v4D-5TRAHm31pBRaTfXf">
    <mxGraphModel dx="4120" dy="2120" grid="1" gridSize="10" guides="1" tooltips="1" connect="1" arrows="1" fold="1" page="1" pageScale="1" pageWidth="2800" pageHeight="1200" math="0" shadow="0">
      <root>
        <mxCell id="0" />
        <mxCell id="1" parent="0" />
        <mxCell id="GrQlZQ7Z27dUGGfjWGh0-12" style="edgeStyle=orthogonalEdgeStyle;rounded=0;orthogonalLoop=1;jettySize=auto;html=1;entryX=0;entryY=0.5;entryDx=0;entryDy=0;strokeWidth=2;" parent="1" source="GrQlZQ7Z27dUGGfjWGh0-13" target="GrQlZQ7Z27dUGGfjWGh0-15" edge="1">
          <mxGeometry relative="1" as="geometry" />
        </mxCell>
        <mxCell id="GrQlZQ7Z27dUGGfjWGh0-13" value="&lt;font style=&quot;font-size: 24px;&quot;&gt;&lt;b style=&quot;&quot;&gt;C&lt;/b&gt;&lt;/font&gt;" style="ellipse;whiteSpace=wrap;html=1;aspect=fixed;" parent="1" vertex="1">
          <mxGeometry x="200" y="320" width="80" height="80" as="geometry" />
        </mxCell>
        <mxCell id="GrQlZQ7Z27dUGGfjWGh0-14" style="edgeStyle=orthogonalEdgeStyle;rounded=0;orthogonalLoop=1;jettySize=auto;html=1;entryX=0;entryY=0.5;entryDx=0;entryDy=0;strokeWidth=2;" parent="1" source="GrQlZQ7Z27dUGGfjWGh0-15" target="GrQlZQ7Z27dUGGfjWGh0-17" edge="1">
          <mxGeometry relative="1" as="geometry" />
        </mxCell>
        <mxCell id="GrQlZQ7Z27dUGGfjWGh0-15" value="&lt;font style=&quot;font-size: 24px;&quot;&gt;&lt;b style=&quot;&quot;&gt;O&lt;/b&gt;&lt;/font&gt;" style="ellipse;whiteSpace=wrap;html=1;aspect=fixed;" parent="1" vertex="1">
          <mxGeometry x="360" y="320" width="80" height="80" as="geometry" />
        </mxCell>
        <mxCell id="GrQlZQ7Z27dUGGfjWGh0-16" style="edgeStyle=orthogonalEdgeStyle;rounded=0;orthogonalLoop=1;jettySize=auto;html=1;entryX=0;entryY=0.5;entryDx=0;entryDy=0;strokeWidth=2;" parent="1" source="GrQlZQ7Z27dUGGfjWGh0-17" target="GrQlZQ7Z27dUGGfjWGh0-19" edge="1">
          <mxGeometry relative="1" as="geometry" />
        </mxCell>
        <mxCell id="GrQlZQ7Z27dUGGfjWGh0-17" value="&lt;font style=&quot;font-size: 24px;&quot;&gt;&lt;b style=&quot;&quot;&gt;M&lt;/b&gt;&lt;/font&gt;" style="ellipse;whiteSpace=wrap;html=1;aspect=fixed;" parent="1" vertex="1">
          <mxGeometry x="520" y="320" width="80" height="80" as="geometry" />
        </mxCell>
        <mxCell id="GrQlZQ7Z27dUGGfjWGh0-18" style="edgeStyle=orthogonalEdgeStyle;rounded=0;orthogonalLoop=1;jettySize=auto;html=1;entryX=0;entryY=0.5;entryDx=0;entryDy=0;strokeWidth=2;" parent="1" source="GrQlZQ7Z27dUGGfjWGh0-19" target="GrQlZQ7Z27dUGGfjWGh0-21" edge="1">
          <mxGeometry relative="1" as="geometry" />
        </mxCell>
        <mxCell id="GrQlZQ7Z27dUGGfjWGh0-19" value="&lt;font style=&quot;font-size: 24px;&quot;&gt;&lt;b style=&quot;&quot;&gt;P&lt;/b&gt;&lt;/font&gt;" style="ellipse;whiteSpace=wrap;html=1;aspect=fixed;" parent="1" vertex="1">
          <mxGeometry x="680" y="320" width="80" height="80" as="geometry" />
        </mxCell>
        <mxCell id="GrQlZQ7Z27dUGGfjWGh0-20" style="edgeStyle=orthogonalEdgeStyle;rounded=0;orthogonalLoop=1;jettySize=auto;html=1;entryX=0;entryY=0.5;entryDx=0;entryDy=0;strokeWidth=2;" parent="1" source="GrQlZQ7Z27dUGGfjWGh0-21" target="GrQlZQ7Z27dUGGfjWGh0-23" edge="1">
          <mxGeometry relative="1" as="geometry" />
        </mxCell>
        <mxCell id="GrQlZQ7Z27dUGGfjWGh0-21" value="&lt;font style=&quot;font-size: 24px;&quot;&gt;&lt;b style=&quot;&quot;&gt;U&lt;/b&gt;&lt;/font&gt;" style="ellipse;whiteSpace=wrap;html=1;aspect=fixed;" parent="1" vertex="1">
          <mxGeometry x="840" y="320" width="80" height="80" as="geometry" />
        </mxCell>
        <mxCell id="GrQlZQ7Z27dUGGfjWGh0-22" style="edgeStyle=orthogonalEdgeStyle;rounded=0;orthogonalLoop=1;jettySize=auto;html=1;entryX=0;entryY=0.5;entryDx=0;entryDy=0;strokeWidth=2;" parent="1" source="GrQlZQ7Z27dUGGfjWGh0-23" target="GrQlZQ7Z27dUGGfjWGh0-25" edge="1">
          <mxGeometry relative="1" as="geometry" />
        </mxCell>
        <mxCell id="GrQlZQ7Z27dUGGfjWGh0-23" value="&lt;font style=&quot;font-size: 24px;&quot;&gt;&lt;b style=&quot;&quot;&gt;T&lt;/b&gt;&lt;/font&gt;" style="ellipse;whiteSpace=wrap;html=1;aspect=fixed;" parent="1" vertex="1">
          <mxGeometry x="1000" y="320" width="80" height="80" as="geometry" />
        </mxCell>
        <mxCell id="GrQlZQ7Z27dUGGfjWGh0-24" style="edgeStyle=orthogonalEdgeStyle;rounded=0;orthogonalLoop=1;jettySize=auto;html=1;entryX=0;entryY=0.5;entryDx=0;entryDy=0;strokeWidth=2;" parent="1" source="GrQlZQ7Z27dUGGfjWGh0-25" target="GrQlZQ7Z27dUGGfjWGh0-27" edge="1">
          <mxGeometry relative="1" as="geometry" />
        </mxCell>
        <mxCell id="GrQlZQ7Z27dUGGfjWGh0-25" value="&lt;font style=&quot;font-size: 24px;&quot;&gt;&lt;b style=&quot;&quot;&gt;E&lt;/b&gt;&lt;/font&gt;" style="ellipse;whiteSpace=wrap;html=1;aspect=fixed;" parent="1" vertex="1">
          <mxGeometry x="1160" y="320" width="80" height="80" as="geometry" />
        </mxCell>
        <mxCell id="GrQlZQ7Z27dUGGfjWGh0-27" value="&lt;span style=&quot;font-size: 24px;&quot;&gt;&lt;b&gt;R&lt;/b&gt;&lt;/span&gt;" style="ellipse;whiteSpace=wrap;html=1;aspect=fixed;" parent="1" vertex="1">
          <mxGeometry x="1320" y="320" width="80" height="80" as="geometry" />
        </mxCell>
        <mxCell id="GrQlZQ7Z27dUGGfjWGh0-28" value="&lt;font style=&quot;font-size: 24px;&quot;&gt;&lt;b style=&quot;&quot;&gt;_&lt;/b&gt;&lt;/font&gt;" style="ellipse;whiteSpace=wrap;html=1;aspect=fixed;" parent="1" vertex="1">
          <mxGeometry x="3240" y="320" width="80" height="80" as="geometry" />
        </mxCell>
        <mxCell id="GrQlZQ7Z27dUGGfjWGh0-29" style="edgeStyle=orthogonalEdgeStyle;rounded=0;orthogonalLoop=1;jettySize=auto;html=1;strokeWidth=2;" parent="1" source="GrQlZQ7Z27dUGGfjWGh0-30" target="GrQlZQ7Z27dUGGfjWGh0-13" edge="1">
          <mxGeometry relative="1" as="geometry" />
        </mxCell>
        <mxCell id="GrQlZQ7Z27dUGGfjWGh0-30" value="" style="whiteSpace=wrap;html=1;aspect=fixed;" parent="1" vertex="1">
          <mxGeometry x="80" y="340" width="40" height="40" as="geometry" />
        </mxCell>
        <mxCell id="GrQlZQ7Z27dUGGfjWGh0-31" value="" style="whiteSpace=wrap;html=1;aspect=fixed;" parent="1" vertex="1">
          <mxGeometry x="5000" y="340" width="40" height="40" as="geometry" />
        </mxCell>
        <mxCell id="GrQlZQ7Z27dUGGfjWGh0-32" value="" style="curved=1;endArrow=classic;html=1;rounded=0;entryX=0.5;entryY=0;entryDx=0;entryDy=0;strokeWidth=2;" parent="1" target="GrQlZQ7Z27dUGGfjWGh0-31" edge="1">
          <mxGeometry width="50" height="50" relative="1" as="geometry">
            <mxPoint x="5040" y="360" as="sourcePoint" />
            <mxPoint x="5090" y="310" as="targetPoint" />
            <Array as="points">
              <mxPoint x="5090" y="360" />
              <mxPoint x="5080" y="330" />
              <mxPoint x="5040" y="310" />
            </Array>
          </mxGeometry>
        </mxCell>
        <mxCell id="GrQlZQ7Z27dUGGfjWGh0-33" value="&lt;b style=&quot;border-color: var(--border-color); font-size: 18px;&quot;&gt;Z&lt;/b&gt;" style="text;html=1;align=center;verticalAlign=middle;resizable=0;points=[];autosize=1;strokeColor=none;fillColor=none;" parent="1" vertex="1">
          <mxGeometry x="5045" y="360" width="30" height="40" as="geometry" />
        </mxCell>
        <mxCell id="GrQlZQ7Z27dUGGfjWGh0-34" style="edgeStyle=orthogonalEdgeStyle;rounded=0;orthogonalLoop=1;jettySize=auto;html=1;entryX=0;entryY=0.5;entryDx=0;entryDy=0;strokeWidth=2;" parent="1" target="GrQlZQ7Z27dUGGfjWGh0-36" edge="1">
          <mxGeometry relative="1" as="geometry">
            <mxPoint x="3320" y="360" as="sourcePoint" />
          </mxGeometry>
        </mxCell>
        <mxCell id="GrQlZQ7Z27dUGGfjWGh0-35" style="edgeStyle=orthogonalEdgeStyle;rounded=0;orthogonalLoop=1;jettySize=auto;html=1;entryX=0;entryY=0.5;entryDx=0;entryDy=0;strokeWidth=2;" parent="1" source="GrQlZQ7Z27dUGGfjWGh0-36" target="GrQlZQ7Z27dUGGfjWGh0-38" edge="1">
          <mxGeometry relative="1" as="geometry" />
        </mxCell>
        <mxCell id="GrQlZQ7Z27dUGGfjWGh0-36" value="&lt;font style=&quot;font-size: 24px;&quot;&gt;&lt;b style=&quot;&quot;&gt;T&lt;/b&gt;&lt;/font&gt;" style="ellipse;whiteSpace=wrap;html=1;aspect=fixed;" parent="1" vertex="1">
          <mxGeometry x="3400" y="320" width="80" height="80" as="geometry" />
        </mxCell>
        <mxCell id="GrQlZQ7Z27dUGGfjWGh0-37" style="edgeStyle=orthogonalEdgeStyle;rounded=0;orthogonalLoop=1;jettySize=auto;html=1;entryX=0;entryY=0.5;entryDx=0;entryDy=0;strokeWidth=2;" parent="1" source="GrQlZQ7Z27dUGGfjWGh0-38" target="GrQlZQ7Z27dUGGfjWGh0-40" edge="1">
          <mxGeometry relative="1" as="geometry" />
        </mxCell>
        <mxCell id="GrQlZQ7Z27dUGGfjWGh0-38" value="&lt;font style=&quot;font-size: 24px;&quot;&gt;&lt;b style=&quot;&quot;&gt;E&lt;/b&gt;&lt;/font&gt;" style="ellipse;whiteSpace=wrap;html=1;aspect=fixed;" parent="1" vertex="1">
          <mxGeometry x="3560" y="320" width="80" height="80" as="geometry" />
        </mxCell>
        <mxCell id="GrQlZQ7Z27dUGGfjWGh0-39" style="edgeStyle=orthogonalEdgeStyle;rounded=0;orthogonalLoop=1;jettySize=auto;html=1;entryX=0;entryY=0.5;entryDx=0;entryDy=0;strokeWidth=2;" parent="1" source="GrQlZQ7Z27dUGGfjWGh0-40" target="GrQlZQ7Z27dUGGfjWGh0-41" edge="1">
          <mxGeometry relative="1" as="geometry" />
        </mxCell>
        <mxCell id="GrQlZQ7Z27dUGGfjWGh0-40" value="&lt;span style=&quot;font-size: 24px;&quot;&gt;&lt;b&gt;C&lt;/b&gt;&lt;/span&gt;" style="ellipse;whiteSpace=wrap;html=1;aspect=fixed;" parent="1" vertex="1">
          <mxGeometry x="3720" y="320" width="80" height="80" as="geometry" />
        </mxCell>
        <mxCell id="GrQlZQ7Z27dUGGfjWGh0-41" value="&lt;font style=&quot;font-size: 24px;&quot;&gt;&lt;b style=&quot;&quot;&gt;H&lt;/b&gt;&lt;/font&gt;" style="ellipse;whiteSpace=wrap;html=1;aspect=fixed;" parent="1" vertex="1">
          <mxGeometry x="3880" y="320" width="80" height="80" as="geometry" />
        </mxCell>
        <mxCell id="GrQlZQ7Z27dUGGfjWGh0-42" style="edgeStyle=orthogonalEdgeStyle;rounded=0;orthogonalLoop=1;jettySize=auto;html=1;entryX=0;entryY=0.5;entryDx=0;entryDy=0;strokeWidth=2;" parent="1" target="GrQlZQ7Z27dUGGfjWGh0-44" edge="1">
          <mxGeometry relative="1" as="geometry">
            <mxPoint x="3960" y="360" as="sourcePoint" />
          </mxGeometry>
        </mxCell>
        <mxCell id="GrQlZQ7Z27dUGGfjWGh0-43" style="edgeStyle=orthogonalEdgeStyle;rounded=0;orthogonalLoop=1;jettySize=auto;html=1;entryX=0;entryY=0.5;entryDx=0;entryDy=0;strokeWidth=2;" parent="1" target="GrQlZQ7Z27dUGGfjWGh0-31" edge="1">
          <mxGeometry relative="1" as="geometry">
            <mxPoint x="4920" y="360" as="sourcePoint" />
          </mxGeometry>
        </mxCell>
        <mxCell id="GrQlZQ7Z27dUGGfjWGh0-44" value="&lt;font style=&quot;font-size: 24px;&quot;&gt;&lt;b style=&quot;&quot;&gt;N&lt;/b&gt;&lt;/font&gt;" style="ellipse;whiteSpace=wrap;html=1;aspect=fixed;" parent="1" vertex="1">
          <mxGeometry x="4040" y="320" width="80" height="80" as="geometry" />
        </mxCell>
        <mxCell id="X-IzUZXBUXzdKDUrdPEt-1" style="edgeStyle=orthogonalEdgeStyle;rounded=0;orthogonalLoop=1;jettySize=auto;html=1;entryX=0;entryY=0.5;entryDx=0;entryDy=0;strokeWidth=2;" edge="1" parent="1" target="X-IzUZXBUXzdKDUrdPEt-3">
          <mxGeometry relative="1" as="geometry">
            <mxPoint x="4120" y="360" as="sourcePoint" />
          </mxGeometry>
        </mxCell>
        <mxCell id="X-IzUZXBUXzdKDUrdPEt-2" style="edgeStyle=orthogonalEdgeStyle;rounded=0;orthogonalLoop=1;jettySize=auto;html=1;entryX=0;entryY=0.5;entryDx=0;entryDy=0;strokeWidth=2;" edge="1" parent="1" source="X-IzUZXBUXzdKDUrdPEt-3" target="X-IzUZXBUXzdKDUrdPEt-4">
          <mxGeometry relative="1" as="geometry" />
        </mxCell>
        <mxCell id="X-IzUZXBUXzdKDUrdPEt-3" value="&lt;span style=&quot;font-size: 24px;&quot;&gt;&lt;b&gt;O&lt;/b&gt;&lt;/span&gt;" style="ellipse;whiteSpace=wrap;html=1;aspect=fixed;" vertex="1" parent="1">
          <mxGeometry x="4200" y="320" width="80" height="80" as="geometry" />
        </mxCell>
        <mxCell id="X-IzUZXBUXzdKDUrdPEt-4" value="&lt;font style=&quot;font-size: 24px;&quot;&gt;&lt;b style=&quot;&quot;&gt;L&lt;/b&gt;&lt;/font&gt;" style="ellipse;whiteSpace=wrap;html=1;aspect=fixed;" vertex="1" parent="1">
          <mxGeometry x="4360" y="320" width="80" height="80" as="geometry" />
        </mxCell>
        <mxCell id="X-IzUZXBUXzdKDUrdPEt-5" style="edgeStyle=orthogonalEdgeStyle;rounded=0;orthogonalLoop=1;jettySize=auto;html=1;entryX=0;entryY=0.5;entryDx=0;entryDy=0;strokeWidth=2;" edge="1" parent="1" target="X-IzUZXBUXzdKDUrdPEt-6">
          <mxGeometry relative="1" as="geometry">
            <mxPoint x="4440" y="360" as="sourcePoint" />
          </mxGeometry>
        </mxCell>
        <mxCell id="X-IzUZXBUXzdKDUrdPEt-6" value="&lt;font style=&quot;font-size: 24px;&quot;&gt;&lt;b style=&quot;&quot;&gt;O&lt;/b&gt;&lt;/font&gt;" style="ellipse;whiteSpace=wrap;html=1;aspect=fixed;" vertex="1" parent="1">
          <mxGeometry x="4520" y="320" width="80" height="80" as="geometry" />
        </mxCell>
        <mxCell id="X-IzUZXBUXzdKDUrdPEt-7" style="edgeStyle=orthogonalEdgeStyle;rounded=0;orthogonalLoop=1;jettySize=auto;html=1;entryX=0;entryY=0.5;entryDx=0;entryDy=0;strokeWidth=2;" edge="1" parent="1" target="X-IzUZXBUXzdKDUrdPEt-8">
          <mxGeometry relative="1" as="geometry">
            <mxPoint x="4600" y="360" as="sourcePoint" />
          </mxGeometry>
        </mxCell>
        <mxCell id="X-IzUZXBUXzdKDUrdPEt-8" value="&lt;font style=&quot;font-size: 24px;&quot;&gt;&lt;b style=&quot;&quot;&gt;G&lt;/b&gt;&lt;/font&gt;" style="ellipse;whiteSpace=wrap;html=1;aspect=fixed;" vertex="1" parent="1">
          <mxGeometry x="4680" y="320" width="80" height="80" as="geometry" />
        </mxCell>
        <mxCell id="X-IzUZXBUXzdKDUrdPEt-9" style="edgeStyle=orthogonalEdgeStyle;rounded=0;orthogonalLoop=1;jettySize=auto;html=1;entryX=0;entryY=0.5;entryDx=0;entryDy=0;strokeWidth=2;" edge="1" parent="1" target="X-IzUZXBUXzdKDUrdPEt-10">
          <mxGeometry relative="1" as="geometry">
            <mxPoint x="4760" y="360" as="sourcePoint" />
          </mxGeometry>
        </mxCell>
        <mxCell id="X-IzUZXBUXzdKDUrdPEt-10" value="&lt;font style=&quot;font-size: 24px;&quot;&gt;&lt;b style=&quot;&quot;&gt;Y&lt;/b&gt;&lt;/font&gt;" style="ellipse;whiteSpace=wrap;html=1;aspect=fixed;" vertex="1" parent="1">
          <mxGeometry x="4840" y="320" width="80" height="80" as="geometry" />
        </mxCell>
        <mxCell id="X-IzUZXBUXzdKDUrdPEt-11" style="edgeStyle=orthogonalEdgeStyle;rounded=0;orthogonalLoop=1;jettySize=auto;html=1;entryX=0;entryY=0.5;entryDx=0;entryDy=0;strokeWidth=2;" edge="1" parent="1" source="X-IzUZXBUXzdKDUrdPEt-12" target="X-IzUZXBUXzdKDUrdPEt-14">
          <mxGeometry relative="1" as="geometry" />
        </mxCell>
        <mxCell id="X-IzUZXBUXzdKDUrdPEt-12" value="&lt;font style=&quot;font-size: 24px;&quot;&gt;&lt;b style=&quot;&quot;&gt;I&lt;/b&gt;&lt;/font&gt;" style="ellipse;whiteSpace=wrap;html=1;aspect=fixed;" vertex="1" parent="1">
          <mxGeometry x="1480" y="160" width="80" height="80" as="geometry" />
        </mxCell>
        <mxCell id="X-IzUZXBUXzdKDUrdPEt-13" style="edgeStyle=orthogonalEdgeStyle;rounded=0;orthogonalLoop=1;jettySize=auto;html=1;entryX=0;entryY=0.5;entryDx=0;entryDy=0;strokeWidth=2;" edge="1" parent="1" source="X-IzUZXBUXzdKDUrdPEt-14" target="X-IzUZXBUXzdKDUrdPEt-16">
          <mxGeometry relative="1" as="geometry" />
        </mxCell>
        <mxCell id="X-IzUZXBUXzdKDUrdPEt-14" value="&lt;font style=&quot;font-size: 24px;&quot;&gt;&lt;b style=&quot;&quot;&gt;N&lt;/b&gt;&lt;/font&gt;" style="ellipse;whiteSpace=wrap;html=1;aspect=fixed;" vertex="1" parent="1">
          <mxGeometry x="1640" y="160" width="80" height="80" as="geometry" />
        </mxCell>
        <mxCell id="X-IzUZXBUXzdKDUrdPEt-15" style="edgeStyle=orthogonalEdgeStyle;rounded=0;orthogonalLoop=1;jettySize=auto;html=1;entryX=0;entryY=0.5;entryDx=0;entryDy=0;strokeWidth=2;" edge="1" parent="1" source="X-IzUZXBUXzdKDUrdPEt-16" target="X-IzUZXBUXzdKDUrdPEt-18">
          <mxGeometry relative="1" as="geometry" />
        </mxCell>
        <mxCell id="X-IzUZXBUXzdKDUrdPEt-16" value="&lt;font style=&quot;font-size: 24px;&quot;&gt;&lt;b style=&quot;&quot;&gt;F&lt;/b&gt;&lt;/font&gt;" style="ellipse;whiteSpace=wrap;html=1;aspect=fixed;" vertex="1" parent="1">
          <mxGeometry x="1800" y="160" width="80" height="80" as="geometry" />
        </mxCell>
        <mxCell id="X-IzUZXBUXzdKDUrdPEt-17" style="edgeStyle=orthogonalEdgeStyle;rounded=0;orthogonalLoop=1;jettySize=auto;html=1;entryX=0;entryY=0.5;entryDx=0;entryDy=0;strokeWidth=2;" edge="1" parent="1" source="X-IzUZXBUXzdKDUrdPEt-18" target="X-IzUZXBUXzdKDUrdPEt-20">
          <mxGeometry relative="1" as="geometry" />
        </mxCell>
        <mxCell id="X-IzUZXBUXzdKDUrdPEt-18" value="&lt;font style=&quot;font-size: 24px;&quot;&gt;&lt;b style=&quot;&quot;&gt;O&lt;/b&gt;&lt;/font&gt;" style="ellipse;whiteSpace=wrap;html=1;aspect=fixed;" vertex="1" parent="1">
          <mxGeometry x="1960" y="160" width="80" height="80" as="geometry" />
        </mxCell>
        <mxCell id="X-IzUZXBUXzdKDUrdPEt-19" style="edgeStyle=orthogonalEdgeStyle;rounded=0;orthogonalLoop=1;jettySize=auto;html=1;entryX=0;entryY=0.5;entryDx=0;entryDy=0;strokeWidth=2;" edge="1" parent="1" source="X-IzUZXBUXzdKDUrdPEt-20" target="X-IzUZXBUXzdKDUrdPEt-22">
          <mxGeometry relative="1" as="geometry" />
        </mxCell>
        <mxCell id="X-IzUZXBUXzdKDUrdPEt-20" value="&lt;font style=&quot;font-size: 24px;&quot;&gt;&lt;b style=&quot;&quot;&gt;R&lt;/b&gt;&lt;/font&gt;" style="ellipse;whiteSpace=wrap;html=1;aspect=fixed;" vertex="1" parent="1">
          <mxGeometry x="2120" y="160" width="80" height="80" as="geometry" />
        </mxCell>
        <mxCell id="X-IzUZXBUXzdKDUrdPEt-21" style="edgeStyle=orthogonalEdgeStyle;rounded=0;orthogonalLoop=1;jettySize=auto;html=1;entryX=0;entryY=0.5;entryDx=0;entryDy=0;strokeWidth=2;" edge="1" parent="1" source="X-IzUZXBUXzdKDUrdPEt-22" target="X-IzUZXBUXzdKDUrdPEt-24">
          <mxGeometry relative="1" as="geometry" />
        </mxCell>
        <mxCell id="X-IzUZXBUXzdKDUrdPEt-22" value="&lt;font style=&quot;font-size: 24px;&quot;&gt;&lt;b style=&quot;&quot;&gt;M&lt;/b&gt;&lt;/font&gt;" style="ellipse;whiteSpace=wrap;html=1;aspect=fixed;" vertex="1" parent="1">
          <mxGeometry x="2280" y="160" width="80" height="80" as="geometry" />
        </mxCell>
        <mxCell id="X-IzUZXBUXzdKDUrdPEt-23" style="edgeStyle=orthogonalEdgeStyle;rounded=0;orthogonalLoop=1;jettySize=auto;html=1;entryX=0;entryY=0.5;entryDx=0;entryDy=0;strokeWidth=2;" edge="1" parent="1" source="X-IzUZXBUXzdKDUrdPEt-24" target="X-IzUZXBUXzdKDUrdPEt-25">
          <mxGeometry relative="1" as="geometry" />
        </mxCell>
        <mxCell id="X-IzUZXBUXzdKDUrdPEt-24" value="&lt;font style=&quot;font-size: 24px;&quot;&gt;&lt;b style=&quot;&quot;&gt;A&lt;/b&gt;&lt;/font&gt;" style="ellipse;whiteSpace=wrap;html=1;aspect=fixed;" vertex="1" parent="1">
          <mxGeometry x="2440" y="160" width="80" height="80" as="geometry" />
        </mxCell>
        <mxCell id="X-IzUZXBUXzdKDUrdPEt-25" value="&lt;span style=&quot;font-size: 24px;&quot;&gt;&lt;b&gt;T&lt;/b&gt;&lt;/span&gt;" style="ellipse;whiteSpace=wrap;html=1;aspect=fixed;" vertex="1" parent="1">
          <mxGeometry x="2600" y="160" width="80" height="80" as="geometry" />
        </mxCell>
        <mxCell id="X-IzUZXBUXzdKDUrdPEt-26" style="edgeStyle=orthogonalEdgeStyle;rounded=0;orthogonalLoop=1;jettySize=auto;html=1;entryX=0;entryY=0.5;entryDx=0;entryDy=0;strokeWidth=2;" edge="1" parent="1" target="X-IzUZXBUXzdKDUrdPEt-28">
          <mxGeometry relative="1" as="geometry">
            <mxPoint x="2680" y="200" as="sourcePoint" />
          </mxGeometry>
        </mxCell>
        <mxCell id="X-IzUZXBUXzdKDUrdPEt-27" style="edgeStyle=orthogonalEdgeStyle;rounded=0;orthogonalLoop=1;jettySize=auto;html=1;entryX=0;entryY=0.5;entryDx=0;entryDy=0;strokeWidth=2;" edge="1" parent="1" source="X-IzUZXBUXzdKDUrdPEt-28" target="X-IzUZXBUXzdKDUrdPEt-30">
          <mxGeometry relative="1" as="geometry" />
        </mxCell>
        <mxCell id="X-IzUZXBUXzdKDUrdPEt-28" value="&lt;font style=&quot;font-size: 24px;&quot;&gt;&lt;b style=&quot;&quot;&gt;I&lt;/b&gt;&lt;/font&gt;" style="ellipse;whiteSpace=wrap;html=1;aspect=fixed;" vertex="1" parent="1">
          <mxGeometry x="2760" y="160" width="80" height="80" as="geometry" />
        </mxCell>
        <mxCell id="X-IzUZXBUXzdKDUrdPEt-29" style="edgeStyle=orthogonalEdgeStyle;rounded=0;orthogonalLoop=1;jettySize=auto;html=1;entryX=0;entryY=0.5;entryDx=0;entryDy=0;strokeWidth=2;" edge="1" parent="1" source="X-IzUZXBUXzdKDUrdPEt-30" target="X-IzUZXBUXzdKDUrdPEt-31">
          <mxGeometry relative="1" as="geometry" />
        </mxCell>
        <mxCell id="X-IzUZXBUXzdKDUrdPEt-30" value="&lt;font style=&quot;font-size: 24px;&quot;&gt;&lt;b style=&quot;&quot;&gt;O&lt;/b&gt;&lt;/font&gt;" style="ellipse;whiteSpace=wrap;html=1;aspect=fixed;" vertex="1" parent="1">
          <mxGeometry x="2920" y="160" width="80" height="80" as="geometry" />
        </mxCell>
        <mxCell id="X-IzUZXBUXzdKDUrdPEt-31" value="&lt;span style=&quot;font-size: 24px;&quot;&gt;&lt;b&gt;N&lt;/b&gt;&lt;/span&gt;" style="ellipse;whiteSpace=wrap;html=1;aspect=fixed;" vertex="1" parent="1">
          <mxGeometry x="3080" y="160" width="80" height="80" as="geometry" />
        </mxCell>
        <mxCell id="X-IzUZXBUXzdKDUrdPEt-32" value="" style="curved=1;endArrow=classic;html=1;rounded=0;strokeWidth=2;exitX=0.5;exitY=0;exitDx=0;exitDy=0;entryX=0;entryY=0.5;entryDx=0;entryDy=0;" edge="1" parent="1" source="GrQlZQ7Z27dUGGfjWGh0-27" target="X-IzUZXBUXzdKDUrdPEt-12">
          <mxGeometry width="50" height="50" relative="1" as="geometry">
            <mxPoint x="1410" y="280" as="sourcePoint" />
            <mxPoint x="1460" y="230" as="targetPoint" />
            <Array as="points">
              <mxPoint x="1370" y="250" />
            </Array>
          </mxGeometry>
        </mxCell>
        <mxCell id="X-IzUZXBUXzdKDUrdPEt-44" value="" style="curved=1;endArrow=classic;html=1;rounded=0;entryX=0.5;entryY=0;entryDx=0;entryDy=0;exitX=1;exitY=0.5;exitDx=0;exitDy=0;strokeWidth=2;" edge="1" parent="1" source="X-IzUZXBUXzdKDUrdPEt-31" target="GrQlZQ7Z27dUGGfjWGh0-28">
          <mxGeometry width="50" height="50" relative="1" as="geometry">
            <mxPoint x="3190" y="170" as="sourcePoint" />
            <mxPoint x="3240" y="120" as="targetPoint" />
            <Array as="points">
              <mxPoint x="3250" y="200" />
            </Array>
          </mxGeometry>
        </mxCell>
        <mxCell id="X-IzUZXBUXzdKDUrdPEt-45" style="edgeStyle=orthogonalEdgeStyle;rounded=0;orthogonalLoop=1;jettySize=auto;html=1;entryX=0;entryY=0.5;entryDx=0;entryDy=0;strokeWidth=2;" edge="1" parent="1" source="X-IzUZXBUXzdKDUrdPEt-46" target="X-IzUZXBUXzdKDUrdPEt-48">
          <mxGeometry relative="1" as="geometry" />
        </mxCell>
        <mxCell id="X-IzUZXBUXzdKDUrdPEt-46" value="&lt;font style=&quot;font-size: 24px;&quot;&gt;&lt;b style=&quot;&quot;&gt;C&lt;/b&gt;&lt;/font&gt;" style="ellipse;whiteSpace=wrap;html=1;aspect=fixed;" vertex="1" parent="1">
          <mxGeometry x="200" y="560" width="80" height="80" as="geometry" />
        </mxCell>
        <mxCell id="X-IzUZXBUXzdKDUrdPEt-47" style="edgeStyle=orthogonalEdgeStyle;rounded=0;orthogonalLoop=1;jettySize=auto;html=1;entryX=0;entryY=0.5;entryDx=0;entryDy=0;strokeWidth=2;" edge="1" parent="1" source="X-IzUZXBUXzdKDUrdPEt-48" target="X-IzUZXBUXzdKDUrdPEt-50">
          <mxGeometry relative="1" as="geometry" />
        </mxCell>
        <mxCell id="X-IzUZXBUXzdKDUrdPEt-48" value="&lt;font style=&quot;font-size: 24px;&quot;&gt;&lt;b style=&quot;&quot;&gt;O&lt;/b&gt;&lt;/font&gt;" style="ellipse;whiteSpace=wrap;html=1;aspect=fixed;" vertex="1" parent="1">
          <mxGeometry x="360" y="560" width="80" height="80" as="geometry" />
        </mxCell>
        <mxCell id="X-IzUZXBUXzdKDUrdPEt-49" style="edgeStyle=orthogonalEdgeStyle;rounded=0;orthogonalLoop=1;jettySize=auto;html=1;entryX=0;entryY=0.5;entryDx=0;entryDy=0;strokeWidth=2;" edge="1" parent="1" source="X-IzUZXBUXzdKDUrdPEt-50" target="X-IzUZXBUXzdKDUrdPEt-52">
          <mxGeometry relative="1" as="geometry" />
        </mxCell>
        <mxCell id="X-IzUZXBUXzdKDUrdPEt-50" value="&lt;font style=&quot;font-size: 24px;&quot;&gt;&lt;b style=&quot;&quot;&gt;M&lt;/b&gt;&lt;/font&gt;" style="ellipse;whiteSpace=wrap;html=1;aspect=fixed;" vertex="1" parent="1">
          <mxGeometry x="520" y="560" width="80" height="80" as="geometry" />
        </mxCell>
        <mxCell id="X-IzUZXBUXzdKDUrdPEt-51" style="edgeStyle=orthogonalEdgeStyle;rounded=0;orthogonalLoop=1;jettySize=auto;html=1;entryX=0;entryY=0.5;entryDx=0;entryDy=0;strokeWidth=2;" edge="1" parent="1" source="X-IzUZXBUXzdKDUrdPEt-52" target="X-IzUZXBUXzdKDUrdPEt-54">
          <mxGeometry relative="1" as="geometry" />
        </mxCell>
        <mxCell id="X-IzUZXBUXzdKDUrdPEt-52" value="&lt;font style=&quot;font-size: 24px;&quot;&gt;&lt;b style=&quot;&quot;&gt;P&lt;/b&gt;&lt;/font&gt;" style="ellipse;whiteSpace=wrap;html=1;aspect=fixed;" vertex="1" parent="1">
          <mxGeometry x="680" y="560" width="80" height="80" as="geometry" />
        </mxCell>
        <mxCell id="X-IzUZXBUXzdKDUrdPEt-53" style="edgeStyle=orthogonalEdgeStyle;rounded=0;orthogonalLoop=1;jettySize=auto;html=1;entryX=0;entryY=0.5;entryDx=0;entryDy=0;strokeWidth=2;" edge="1" parent="1" source="X-IzUZXBUXzdKDUrdPEt-54" target="X-IzUZXBUXzdKDUrdPEt-56">
          <mxGeometry relative="1" as="geometry" />
        </mxCell>
        <mxCell id="X-IzUZXBUXzdKDUrdPEt-54" value="&lt;font style=&quot;font-size: 24px;&quot;&gt;&lt;b style=&quot;&quot;&gt;U&lt;/b&gt;&lt;/font&gt;" style="ellipse;whiteSpace=wrap;html=1;aspect=fixed;" vertex="1" parent="1">
          <mxGeometry x="840" y="560" width="80" height="80" as="geometry" />
        </mxCell>
        <mxCell id="X-IzUZXBUXzdKDUrdPEt-55" style="edgeStyle=orthogonalEdgeStyle;rounded=0;orthogonalLoop=1;jettySize=auto;html=1;entryX=0;entryY=0.5;entryDx=0;entryDy=0;strokeWidth=2;" edge="1" parent="1" source="X-IzUZXBUXzdKDUrdPEt-56" target="X-IzUZXBUXzdKDUrdPEt-58">
          <mxGeometry relative="1" as="geometry" />
        </mxCell>
        <mxCell id="X-IzUZXBUXzdKDUrdPEt-56" value="&lt;font style=&quot;font-size: 24px;&quot;&gt;&lt;b style=&quot;&quot;&gt;T&lt;/b&gt;&lt;/font&gt;" style="ellipse;whiteSpace=wrap;html=1;aspect=fixed;" vertex="1" parent="1">
          <mxGeometry x="1000" y="560" width="80" height="80" as="geometry" />
        </mxCell>
        <mxCell id="X-IzUZXBUXzdKDUrdPEt-57" style="edgeStyle=orthogonalEdgeStyle;rounded=0;orthogonalLoop=1;jettySize=auto;html=1;entryX=0;entryY=0.5;entryDx=0;entryDy=0;strokeWidth=2;" edge="1" parent="1" source="X-IzUZXBUXzdKDUrdPEt-58" target="X-IzUZXBUXzdKDUrdPEt-59">
          <mxGeometry relative="1" as="geometry" />
        </mxCell>
        <mxCell id="X-IzUZXBUXzdKDUrdPEt-58" value="&lt;font style=&quot;font-size: 24px;&quot;&gt;&lt;b style=&quot;&quot;&gt;E&lt;/b&gt;&lt;/font&gt;" style="ellipse;whiteSpace=wrap;html=1;aspect=fixed;" vertex="1" parent="1">
          <mxGeometry x="1160" y="560" width="80" height="80" as="geometry" />
        </mxCell>
        <mxCell id="X-IzUZXBUXzdKDUrdPEt-131" style="edgeStyle=orthogonalEdgeStyle;rounded=0;orthogonalLoop=1;jettySize=auto;html=1;entryX=0;entryY=0.5;entryDx=0;entryDy=0;strokeWidth=2;" edge="1" parent="1" source="X-IzUZXBUXzdKDUrdPEt-59" target="X-IzUZXBUXzdKDUrdPEt-111">
          <mxGeometry relative="1" as="geometry" />
        </mxCell>
        <mxCell id="X-IzUZXBUXzdKDUrdPEt-59" value="&lt;span style=&quot;font-size: 24px;&quot;&gt;&lt;b&gt;R&lt;/b&gt;&lt;/span&gt;" style="ellipse;whiteSpace=wrap;html=1;aspect=fixed;" vertex="1" parent="1">
          <mxGeometry x="1320" y="560" width="80" height="80" as="geometry" />
        </mxCell>
        <mxCell id="X-IzUZXBUXzdKDUrdPEt-60" value="&lt;font style=&quot;font-size: 24px;&quot;&gt;&lt;b style=&quot;&quot;&gt;_&lt;/b&gt;&lt;/font&gt;" style="ellipse;whiteSpace=wrap;html=1;aspect=fixed;" vertex="1" parent="1">
          <mxGeometry x="3240" y="560" width="80" height="80" as="geometry" />
        </mxCell>
        <mxCell id="X-IzUZXBUXzdKDUrdPEt-61" style="edgeStyle=orthogonalEdgeStyle;rounded=0;orthogonalLoop=1;jettySize=auto;html=1;strokeWidth=2;" edge="1" parent="1" source="X-IzUZXBUXzdKDUrdPEt-62" target="X-IzUZXBUXzdKDUrdPEt-46">
          <mxGeometry relative="1" as="geometry" />
        </mxCell>
        <mxCell id="X-IzUZXBUXzdKDUrdPEt-62" value="" style="whiteSpace=wrap;html=1;aspect=fixed;" vertex="1" parent="1">
          <mxGeometry x="80" y="580" width="40" height="40" as="geometry" />
        </mxCell>
        <mxCell id="X-IzUZXBUXzdKDUrdPEt-63" value="" style="whiteSpace=wrap;html=1;aspect=fixed;" vertex="1" parent="1">
          <mxGeometry x="5000" y="580" width="40" height="40" as="geometry" />
        </mxCell>
        <mxCell id="X-IzUZXBUXzdKDUrdPEt-64" value="" style="curved=1;endArrow=classic;html=1;rounded=0;entryX=0.5;entryY=0;entryDx=0;entryDy=0;strokeWidth=2;" edge="1" parent="1" target="X-IzUZXBUXzdKDUrdPEt-63">
          <mxGeometry width="50" height="50" relative="1" as="geometry">
            <mxPoint x="5040" y="600" as="sourcePoint" />
            <mxPoint x="5090" y="550" as="targetPoint" />
            <Array as="points">
              <mxPoint x="5090" y="600" />
              <mxPoint x="5080" y="570" />
              <mxPoint x="5040" y="550" />
            </Array>
          </mxGeometry>
        </mxCell>
        <mxCell id="X-IzUZXBUXzdKDUrdPEt-65" value="&lt;b style=&quot;border-color: var(--border-color); font-size: 18px;&quot;&gt;Z&lt;/b&gt;" style="text;html=1;align=center;verticalAlign=middle;resizable=0;points=[];autosize=1;strokeColor=none;fillColor=none;" vertex="1" parent="1">
          <mxGeometry x="5045" y="600" width="30" height="40" as="geometry" />
        </mxCell>
        <mxCell id="X-IzUZXBUXzdKDUrdPEt-66" style="edgeStyle=orthogonalEdgeStyle;rounded=0;orthogonalLoop=1;jettySize=auto;html=1;entryX=0;entryY=0.5;entryDx=0;entryDy=0;strokeWidth=2;" edge="1" parent="1" target="X-IzUZXBUXzdKDUrdPEt-68">
          <mxGeometry relative="1" as="geometry">
            <mxPoint x="3320" y="600" as="sourcePoint" />
          </mxGeometry>
        </mxCell>
        <mxCell id="X-IzUZXBUXzdKDUrdPEt-67" style="edgeStyle=orthogonalEdgeStyle;rounded=0;orthogonalLoop=1;jettySize=auto;html=1;entryX=0;entryY=0.5;entryDx=0;entryDy=0;strokeWidth=2;" edge="1" parent="1" source="X-IzUZXBUXzdKDUrdPEt-68" target="X-IzUZXBUXzdKDUrdPEt-70">
          <mxGeometry relative="1" as="geometry" />
        </mxCell>
        <mxCell id="X-IzUZXBUXzdKDUrdPEt-68" value="&lt;font style=&quot;font-size: 24px;&quot;&gt;&lt;b style=&quot;&quot;&gt;T&lt;/b&gt;&lt;/font&gt;" style="ellipse;whiteSpace=wrap;html=1;aspect=fixed;" vertex="1" parent="1">
          <mxGeometry x="3400" y="560" width="80" height="80" as="geometry" />
        </mxCell>
        <mxCell id="X-IzUZXBUXzdKDUrdPEt-69" style="edgeStyle=orthogonalEdgeStyle;rounded=0;orthogonalLoop=1;jettySize=auto;html=1;entryX=0;entryY=0.5;entryDx=0;entryDy=0;strokeWidth=2;" edge="1" parent="1" source="X-IzUZXBUXzdKDUrdPEt-70" target="X-IzUZXBUXzdKDUrdPEt-72">
          <mxGeometry relative="1" as="geometry" />
        </mxCell>
        <mxCell id="X-IzUZXBUXzdKDUrdPEt-70" value="&lt;font style=&quot;font-size: 24px;&quot;&gt;&lt;b style=&quot;&quot;&gt;E&lt;/b&gt;&lt;/font&gt;" style="ellipse;whiteSpace=wrap;html=1;aspect=fixed;" vertex="1" parent="1">
          <mxGeometry x="3560" y="560" width="80" height="80" as="geometry" />
        </mxCell>
        <mxCell id="X-IzUZXBUXzdKDUrdPEt-71" style="edgeStyle=orthogonalEdgeStyle;rounded=0;orthogonalLoop=1;jettySize=auto;html=1;entryX=0;entryY=0.5;entryDx=0;entryDy=0;strokeWidth=2;" edge="1" parent="1" source="X-IzUZXBUXzdKDUrdPEt-72" target="X-IzUZXBUXzdKDUrdPEt-73">
          <mxGeometry relative="1" as="geometry" />
        </mxCell>
        <mxCell id="X-IzUZXBUXzdKDUrdPEt-72" value="&lt;span style=&quot;font-size: 24px;&quot;&gt;&lt;b&gt;C&lt;/b&gt;&lt;/span&gt;" style="ellipse;whiteSpace=wrap;html=1;aspect=fixed;" vertex="1" parent="1">
          <mxGeometry x="3720" y="560" width="80" height="80" as="geometry" />
        </mxCell>
        <mxCell id="X-IzUZXBUXzdKDUrdPEt-73" value="&lt;font style=&quot;font-size: 24px;&quot;&gt;&lt;b style=&quot;&quot;&gt;H&lt;/b&gt;&lt;/font&gt;" style="ellipse;whiteSpace=wrap;html=1;aspect=fixed;" vertex="1" parent="1">
          <mxGeometry x="3880" y="560" width="80" height="80" as="geometry" />
        </mxCell>
        <mxCell id="X-IzUZXBUXzdKDUrdPEt-74" style="edgeStyle=orthogonalEdgeStyle;rounded=0;orthogonalLoop=1;jettySize=auto;html=1;entryX=0;entryY=0.5;entryDx=0;entryDy=0;strokeWidth=2;" edge="1" parent="1" target="X-IzUZXBUXzdKDUrdPEt-76">
          <mxGeometry relative="1" as="geometry">
            <mxPoint x="3960" y="600" as="sourcePoint" />
          </mxGeometry>
        </mxCell>
        <mxCell id="X-IzUZXBUXzdKDUrdPEt-75" style="edgeStyle=orthogonalEdgeStyle;rounded=0;orthogonalLoop=1;jettySize=auto;html=1;entryX=0;entryY=0.5;entryDx=0;entryDy=0;strokeWidth=2;" edge="1" parent="1" target="X-IzUZXBUXzdKDUrdPEt-63">
          <mxGeometry relative="1" as="geometry">
            <mxPoint x="4920" y="600" as="sourcePoint" />
          </mxGeometry>
        </mxCell>
        <mxCell id="X-IzUZXBUXzdKDUrdPEt-76" value="&lt;font style=&quot;font-size: 24px;&quot;&gt;&lt;b style=&quot;&quot;&gt;N&lt;/b&gt;&lt;/font&gt;" style="ellipse;whiteSpace=wrap;html=1;aspect=fixed;" vertex="1" parent="1">
          <mxGeometry x="4040" y="560" width="80" height="80" as="geometry" />
        </mxCell>
        <mxCell id="X-IzUZXBUXzdKDUrdPEt-77" style="edgeStyle=orthogonalEdgeStyle;rounded=0;orthogonalLoop=1;jettySize=auto;html=1;entryX=0;entryY=0.5;entryDx=0;entryDy=0;strokeWidth=2;" edge="1" parent="1" target="X-IzUZXBUXzdKDUrdPEt-79">
          <mxGeometry relative="1" as="geometry">
            <mxPoint x="4120" y="600" as="sourcePoint" />
          </mxGeometry>
        </mxCell>
        <mxCell id="X-IzUZXBUXzdKDUrdPEt-78" style="edgeStyle=orthogonalEdgeStyle;rounded=0;orthogonalLoop=1;jettySize=auto;html=1;entryX=0;entryY=0.5;entryDx=0;entryDy=0;strokeWidth=2;" edge="1" parent="1" source="X-IzUZXBUXzdKDUrdPEt-79" target="X-IzUZXBUXzdKDUrdPEt-80">
          <mxGeometry relative="1" as="geometry" />
        </mxCell>
        <mxCell id="X-IzUZXBUXzdKDUrdPEt-79" value="&lt;span style=&quot;font-size: 24px;&quot;&gt;&lt;b&gt;O&lt;/b&gt;&lt;/span&gt;" style="ellipse;whiteSpace=wrap;html=1;aspect=fixed;" vertex="1" parent="1">
          <mxGeometry x="4200" y="560" width="80" height="80" as="geometry" />
        </mxCell>
        <mxCell id="X-IzUZXBUXzdKDUrdPEt-80" value="&lt;font style=&quot;font-size: 24px;&quot;&gt;&lt;b style=&quot;&quot;&gt;L&lt;/b&gt;&lt;/font&gt;" style="ellipse;whiteSpace=wrap;html=1;aspect=fixed;" vertex="1" parent="1">
          <mxGeometry x="4360" y="560" width="80" height="80" as="geometry" />
        </mxCell>
        <mxCell id="X-IzUZXBUXzdKDUrdPEt-81" style="edgeStyle=orthogonalEdgeStyle;rounded=0;orthogonalLoop=1;jettySize=auto;html=1;entryX=0;entryY=0.5;entryDx=0;entryDy=0;strokeWidth=2;" edge="1" parent="1" target="X-IzUZXBUXzdKDUrdPEt-82">
          <mxGeometry relative="1" as="geometry">
            <mxPoint x="4440" y="600" as="sourcePoint" />
          </mxGeometry>
        </mxCell>
        <mxCell id="X-IzUZXBUXzdKDUrdPEt-82" value="&lt;font style=&quot;font-size: 24px;&quot;&gt;&lt;b style=&quot;&quot;&gt;O&lt;/b&gt;&lt;/font&gt;" style="ellipse;whiteSpace=wrap;html=1;aspect=fixed;" vertex="1" parent="1">
          <mxGeometry x="4520" y="560" width="80" height="80" as="geometry" />
        </mxCell>
        <mxCell id="X-IzUZXBUXzdKDUrdPEt-83" style="edgeStyle=orthogonalEdgeStyle;rounded=0;orthogonalLoop=1;jettySize=auto;html=1;entryX=0;entryY=0.5;entryDx=0;entryDy=0;strokeWidth=2;" edge="1" parent="1" target="X-IzUZXBUXzdKDUrdPEt-84">
          <mxGeometry relative="1" as="geometry">
            <mxPoint x="4600" y="600" as="sourcePoint" />
          </mxGeometry>
        </mxCell>
        <mxCell id="X-IzUZXBUXzdKDUrdPEt-84" value="&lt;font style=&quot;font-size: 24px;&quot;&gt;&lt;b style=&quot;&quot;&gt;G&lt;/b&gt;&lt;/font&gt;" style="ellipse;whiteSpace=wrap;html=1;aspect=fixed;" vertex="1" parent="1">
          <mxGeometry x="4680" y="560" width="80" height="80" as="geometry" />
        </mxCell>
        <mxCell id="X-IzUZXBUXzdKDUrdPEt-85" style="edgeStyle=orthogonalEdgeStyle;rounded=0;orthogonalLoop=1;jettySize=auto;html=1;entryX=0;entryY=0.5;entryDx=0;entryDy=0;strokeWidth=2;" edge="1" parent="1" target="X-IzUZXBUXzdKDUrdPEt-86">
          <mxGeometry relative="1" as="geometry">
            <mxPoint x="4760" y="600" as="sourcePoint" />
          </mxGeometry>
        </mxCell>
        <mxCell id="X-IzUZXBUXzdKDUrdPEt-86" value="&lt;font style=&quot;font-size: 24px;&quot;&gt;&lt;b style=&quot;&quot;&gt;Y&lt;/b&gt;&lt;/font&gt;" style="ellipse;whiteSpace=wrap;html=1;aspect=fixed;" vertex="1" parent="1">
          <mxGeometry x="4840" y="560" width="80" height="80" as="geometry" />
        </mxCell>
        <mxCell id="X-IzUZXBUXzdKDUrdPEt-110" style="edgeStyle=orthogonalEdgeStyle;rounded=0;orthogonalLoop=1;jettySize=auto;html=1;entryX=0;entryY=0.5;entryDx=0;entryDy=0;strokeWidth=2;" edge="1" parent="1" source="X-IzUZXBUXzdKDUrdPEt-111" target="X-IzUZXBUXzdKDUrdPEt-113">
          <mxGeometry relative="1" as="geometry" />
        </mxCell>
        <mxCell id="X-IzUZXBUXzdKDUrdPEt-111" value="&lt;font style=&quot;font-size: 24px;&quot;&gt;&lt;b style=&quot;&quot;&gt;I&lt;/b&gt;&lt;/font&gt;" style="ellipse;whiteSpace=wrap;html=1;aspect=fixed;" vertex="1" parent="1">
          <mxGeometry x="1480" y="560" width="80" height="80" as="geometry" />
        </mxCell>
        <mxCell id="X-IzUZXBUXzdKDUrdPEt-112" style="edgeStyle=orthogonalEdgeStyle;rounded=0;orthogonalLoop=1;jettySize=auto;html=1;entryX=0;entryY=0.5;entryDx=0;entryDy=0;strokeWidth=2;" edge="1" parent="1" source="X-IzUZXBUXzdKDUrdPEt-113" target="X-IzUZXBUXzdKDUrdPEt-115">
          <mxGeometry relative="1" as="geometry" />
        </mxCell>
        <mxCell id="X-IzUZXBUXzdKDUrdPEt-113" value="&lt;font style=&quot;font-size: 24px;&quot;&gt;&lt;b style=&quot;&quot;&gt;N&lt;/b&gt;&lt;/font&gt;" style="ellipse;whiteSpace=wrap;html=1;aspect=fixed;" vertex="1" parent="1">
          <mxGeometry x="1640" y="560" width="80" height="80" as="geometry" />
        </mxCell>
        <mxCell id="X-IzUZXBUXzdKDUrdPEt-114" style="edgeStyle=orthogonalEdgeStyle;rounded=0;orthogonalLoop=1;jettySize=auto;html=1;entryX=0;entryY=0.5;entryDx=0;entryDy=0;strokeWidth=2;" edge="1" parent="1" source="X-IzUZXBUXzdKDUrdPEt-115" target="X-IzUZXBUXzdKDUrdPEt-117">
          <mxGeometry relative="1" as="geometry" />
        </mxCell>
        <mxCell id="X-IzUZXBUXzdKDUrdPEt-115" value="&lt;font style=&quot;font-size: 24px;&quot;&gt;&lt;b style=&quot;&quot;&gt;F&lt;/b&gt;&lt;/font&gt;" style="ellipse;whiteSpace=wrap;html=1;aspect=fixed;" vertex="1" parent="1">
          <mxGeometry x="1800" y="560" width="80" height="80" as="geometry" />
        </mxCell>
        <mxCell id="X-IzUZXBUXzdKDUrdPEt-116" style="edgeStyle=orthogonalEdgeStyle;rounded=0;orthogonalLoop=1;jettySize=auto;html=1;entryX=0;entryY=0.5;entryDx=0;entryDy=0;strokeWidth=2;" edge="1" parent="1" source="X-IzUZXBUXzdKDUrdPEt-117" target="X-IzUZXBUXzdKDUrdPEt-119">
          <mxGeometry relative="1" as="geometry" />
        </mxCell>
        <mxCell id="X-IzUZXBUXzdKDUrdPEt-117" value="&lt;font style=&quot;font-size: 24px;&quot;&gt;&lt;b style=&quot;&quot;&gt;O&lt;/b&gt;&lt;/font&gt;" style="ellipse;whiteSpace=wrap;html=1;aspect=fixed;" vertex="1" parent="1">
          <mxGeometry x="1960" y="560" width="80" height="80" as="geometry" />
        </mxCell>
        <mxCell id="X-IzUZXBUXzdKDUrdPEt-118" style="edgeStyle=orthogonalEdgeStyle;rounded=0;orthogonalLoop=1;jettySize=auto;html=1;entryX=0;entryY=0.5;entryDx=0;entryDy=0;strokeWidth=2;" edge="1" parent="1" source="X-IzUZXBUXzdKDUrdPEt-119" target="X-IzUZXBUXzdKDUrdPEt-121">
          <mxGeometry relative="1" as="geometry" />
        </mxCell>
        <mxCell id="X-IzUZXBUXzdKDUrdPEt-119" value="&lt;font style=&quot;font-size: 24px;&quot;&gt;&lt;b style=&quot;&quot;&gt;R&lt;/b&gt;&lt;/font&gt;" style="ellipse;whiteSpace=wrap;html=1;aspect=fixed;" vertex="1" parent="1">
          <mxGeometry x="2120" y="560" width="80" height="80" as="geometry" />
        </mxCell>
        <mxCell id="X-IzUZXBUXzdKDUrdPEt-120" style="edgeStyle=orthogonalEdgeStyle;rounded=0;orthogonalLoop=1;jettySize=auto;html=1;entryX=0;entryY=0.5;entryDx=0;entryDy=0;strokeWidth=2;" edge="1" parent="1" source="X-IzUZXBUXzdKDUrdPEt-121" target="X-IzUZXBUXzdKDUrdPEt-123">
          <mxGeometry relative="1" as="geometry" />
        </mxCell>
        <mxCell id="X-IzUZXBUXzdKDUrdPEt-121" value="&lt;font style=&quot;font-size: 24px;&quot;&gt;&lt;b style=&quot;&quot;&gt;M&lt;/b&gt;&lt;/font&gt;" style="ellipse;whiteSpace=wrap;html=1;aspect=fixed;" vertex="1" parent="1">
          <mxGeometry x="2280" y="560" width="80" height="80" as="geometry" />
        </mxCell>
        <mxCell id="X-IzUZXBUXzdKDUrdPEt-122" style="edgeStyle=orthogonalEdgeStyle;rounded=0;orthogonalLoop=1;jettySize=auto;html=1;entryX=0;entryY=0.5;entryDx=0;entryDy=0;strokeWidth=2;" edge="1" parent="1" source="X-IzUZXBUXzdKDUrdPEt-123" target="X-IzUZXBUXzdKDUrdPEt-124">
          <mxGeometry relative="1" as="geometry" />
        </mxCell>
        <mxCell id="X-IzUZXBUXzdKDUrdPEt-123" value="&lt;font style=&quot;font-size: 24px;&quot;&gt;&lt;b style=&quot;&quot;&gt;A&lt;/b&gt;&lt;/font&gt;" style="ellipse;whiteSpace=wrap;html=1;aspect=fixed;" vertex="1" parent="1">
          <mxGeometry x="2440" y="560" width="80" height="80" as="geometry" />
        </mxCell>
        <mxCell id="X-IzUZXBUXzdKDUrdPEt-124" value="&lt;span style=&quot;font-size: 24px;&quot;&gt;&lt;b&gt;T&lt;/b&gt;&lt;/span&gt;" style="ellipse;whiteSpace=wrap;html=1;aspect=fixed;" vertex="1" parent="1">
          <mxGeometry x="2600" y="560" width="80" height="80" as="geometry" />
        </mxCell>
        <mxCell id="X-IzUZXBUXzdKDUrdPEt-125" style="edgeStyle=orthogonalEdgeStyle;rounded=0;orthogonalLoop=1;jettySize=auto;html=1;entryX=0;entryY=0.5;entryDx=0;entryDy=0;strokeWidth=2;" edge="1" parent="1" target="X-IzUZXBUXzdKDUrdPEt-127">
          <mxGeometry relative="1" as="geometry">
            <mxPoint x="2680" y="600" as="sourcePoint" />
          </mxGeometry>
        </mxCell>
        <mxCell id="X-IzUZXBUXzdKDUrdPEt-126" style="edgeStyle=orthogonalEdgeStyle;rounded=0;orthogonalLoop=1;jettySize=auto;html=1;entryX=0;entryY=0.5;entryDx=0;entryDy=0;strokeWidth=2;" edge="1" parent="1" source="X-IzUZXBUXzdKDUrdPEt-127" target="X-IzUZXBUXzdKDUrdPEt-129">
          <mxGeometry relative="1" as="geometry" />
        </mxCell>
        <mxCell id="X-IzUZXBUXzdKDUrdPEt-127" value="&lt;font style=&quot;font-size: 24px;&quot;&gt;&lt;b style=&quot;&quot;&gt;I&lt;/b&gt;&lt;/font&gt;" style="ellipse;whiteSpace=wrap;html=1;aspect=fixed;" vertex="1" parent="1">
          <mxGeometry x="2760" y="560" width="80" height="80" as="geometry" />
        </mxCell>
        <mxCell id="X-IzUZXBUXzdKDUrdPEt-128" style="edgeStyle=orthogonalEdgeStyle;rounded=0;orthogonalLoop=1;jettySize=auto;html=1;entryX=0;entryY=0.5;entryDx=0;entryDy=0;strokeWidth=2;" edge="1" parent="1" source="X-IzUZXBUXzdKDUrdPEt-129" target="X-IzUZXBUXzdKDUrdPEt-130">
          <mxGeometry relative="1" as="geometry" />
        </mxCell>
        <mxCell id="X-IzUZXBUXzdKDUrdPEt-129" value="&lt;font style=&quot;font-size: 24px;&quot;&gt;&lt;b style=&quot;&quot;&gt;O&lt;/b&gt;&lt;/font&gt;" style="ellipse;whiteSpace=wrap;html=1;aspect=fixed;" vertex="1" parent="1">
          <mxGeometry x="2920" y="560" width="80" height="80" as="geometry" />
        </mxCell>
        <mxCell id="X-IzUZXBUXzdKDUrdPEt-132" style="edgeStyle=orthogonalEdgeStyle;rounded=0;orthogonalLoop=1;jettySize=auto;html=1;entryX=0;entryY=0.5;entryDx=0;entryDy=0;strokeWidth=2;" edge="1" parent="1" source="X-IzUZXBUXzdKDUrdPEt-130" target="X-IzUZXBUXzdKDUrdPEt-60">
          <mxGeometry relative="1" as="geometry" />
        </mxCell>
        <mxCell id="X-IzUZXBUXzdKDUrdPEt-130" value="&lt;span style=&quot;font-size: 24px;&quot;&gt;&lt;b&gt;N&lt;/b&gt;&lt;/span&gt;" style="ellipse;whiteSpace=wrap;html=1;aspect=fixed;" vertex="1" parent="1">
          <mxGeometry x="3080" y="560" width="80" height="80" as="geometry" />
        </mxCell>
      </root>
    </mxGraphModel>
  </diagram>
</mxfile>
